<svg xmlns="http://www.w3.org/2000/svg" viewBox="0 0 53.43 12.52"><path fill="currentColor" d="M18.36 5.88a5.9 5.9 0 0 1-5.88 5.87c-3.15 0-7.64-2.06-5.25-2.95C11.44 7.24 0 7.6 0 5.88S11.44 3.34 7 2.4C2.92 1.55 10.13 0 12.49 0a5.9 5.9 0 0 1 5.88 5.88" opacity=".5"/><path fill="#ffffff" d="M11.18 1.5c-2.06 0-2.4 1.46-2.4 2.44h-.96v1.34h.96v4.87h1.75V5.28h3.81c1.06 0 1.43.6 1.43.94-1.58-.02-4.07-.13-4.1 1.96-.02 2.35 2.69 1.97 4.22 1.97h5.32c1.83 0 2.93-.55 2.93-1.88 0-.92-.6-1.46-1.48-1.67-.75-.18-2.34-.07-2.34-.81 0-.5.8-.5 1.22-.5h3.7v2.4c0 1.92 1.37 2.46 2.32 2.46h3.96V7.22c0-1.66 1.5-1.7 2.78-1.7l2.01 4.68c-.4 1.01-1.2.95-2.05.95v1.33c1.69.14 2.83-.03 3.64-1.95l2.8-6.59h-1.72l-1.76 4.22-1.74-4.22h-1.9c-.86 0-1.59.16-2.14.82v-.82h-1.72v4.87h-1.9c-.36 0-.77-.38-.77-1.12V5.3h1.53V3.93h-1.53V2.57h-1.8v1.37h-3.7c-1.26 0-2.88.41-2.88 1.92 0 1.18.95 1.65 2.27 1.85.49.07 1.48.04 1.48.6 0 .4-.49.5-1.14.5h-3.7v-2.2c0-2.18-1.6-2.67-3-2.67h-4.05c-.07-.59.39-1.1.82-1.1h1.79V1.5zm4.6 6.06V8.8c-1.16 0-2.35.25-2.35-.63 0-.8 1.15-.62 2.34-.62"/><path fill="#ffffff" fill-opacity=".4" d="M42.94 3.94v6.21h1.8V7.22c0-1.17.61-1.7 2.05-1.7h.35v1.93c0 2.47 1.74 2.8 2.65 2.8.41 0 1.32-.1 1.94-.83l-.01.73h1.7v-6.2h-1.8V7c0 1.2-.63 1.68-1.42 1.68-1.21 0-1.26-1.23-1.26-1.68V3.94h-2.15c-.8 0-1.58.16-2.13.82v-.82zm-1.57 4.12c-.44 0-1.78.29-1.02.45.82.17-1.3.32-1.3.64s2.13.26 1.34.55c-.44.16.4.55.98.55a1.1 1.1 0 1 0 0-2.19"/></svg>
