<svg xmlns="http://www.w3.org/2000/svg" viewBox="0 0 14.32 14.32">
  <path fill="#fff" d="M14.32 7.15a7.16 7.16 0 0 1-7.16 7.16A7.16 7.16 0 0 1 0 7.15 7.16 7.16 0 0 1 7.16-.01a7.16 7.16 0 0 1 7.16 7.16"/>
  <path fill="#8b0000" d="M.26 5.23a7.5 7.5 0 0 0-.1 3.4c2.5.34 4.46.27 2.4 1.45-2.23 1.3 2.1 2.95 5.26 2.95 1.56 0 2.98-.61 4.03-1.6h-.63c-1.53 0-4.24.37-4.21-1.97.02-2.1 2.51-1.98 4.1-1.97 0-.34-.37-.93-1.43-.93H5.87v4.87H4.12V6.55h-.96V5.21h.96c0-.98.34-2.45 2.4-2.45h1.95V4.1H6.69c-.44 0-.9.52-.82 1.11h4.05c1.39 0 2.99.48 2.99 2.67v2.2c2.07-3.56-.17-8.82-5.09-8.8-2.33 0-8.8 1.55-5.48 2.4 3.1.8-1.6 1.4-2.02 1.54m9.92 3.58c-.83-.01-1.48.04-1.48.64 0 .87 1.2.63 2.35.63V8.81z"/>
</svg>
