<svg xmlns="http://www.w3.org/2000/svg" fill="none" viewBox="0 0 1200 630"><path fill="#540000" d="M0 0h1200v630H0z"/><path stroke="#fff" stroke-width=".892" d="M425 415.898h350" opacity=".5"/><text x="600.528" y="474.485" fill="#dbeafe" stroke-width="2.819" font-family="system-ui, '-apple-system', 'Segoe UI', Helvetica, Arial, sans-serif" font-size="36.643" letter-spacing="1.5" text-anchor="middle"><tspan fill="#fee1db">очень быстрый</tspan></text><path stroke="#fff" stroke-width="1.5" d="M36 60V36h24m1080 0h24v24M36 570v24h24m1080 0h24v-24" opacity=".5"/><path fill="#ff5454" d="M469.607 310.906c0 34.494-27.963 62.457-62.458 62.457-33.552 0-81.316-21.886-55.83-31.339 44.729-16.589-76.888-12.778-76.888-31.118 0-18.364 121.574-26.976 74.472-36.858-43.515-9.128 33.126-25.6 58.246-25.6 34.495.001 62.458 27.964 62.458 62.458z" opacity=".5"/><path fill="#fff" d="M393.286 673.634c-21.864 0-25.519 15.587-25.519 26.013h-10.185v14.234h10.185v51.773h18.651V713.88h40.462c11.314 0 15.212 6.317 15.212 9.933-16.836-.134-43.3-1.387-43.554 20.92-.284 24.894 28.536 20.92 44.784 20.92h56.586c19.456 0 31.16-5.87 31.16-19.997 0-9.834-6.474-15.557-15.7-17.789-8.048-1.947-24.92-.686-24.92-8.592 0-5.393 8.525-5.395 13.014-5.395h39.348v25.64c0 20.402 14.482 26.133 24.661 26.133h42.093v-31.16c0-17.693 15.828-18.163 29.463-18.163l21.414 49.872c-4.161 10.689-12.72 10.004-21.832 10.004v14.235c17.983 1.456 30.12-.404 38.775-20.74l29.814-70.055h-18.404l-18.645 44.829-18.53-44.83H631.4c-9.076 0-16.853 1.712-22.7 8.686v-8.685h-18.278v51.773H570.17c-3.811 0-8.219-4.099-8.219-11.9v-25.64h16.327v-14.233H561.95v-14.603h-19.14v14.603h-39.348c-13.291 0-30.55 4.346-30.55 20.365 0 12.575 10.048 17.577 24.172 19.635 5.157.75 15.707.438 15.707 6.499 0 4.118-5.186 5.274-12.147 5.274h-39.412v-23.431c0-23.185-16.984-28.342-31.776-28.342h-43.038c-.786-6.276 4.052-11.779 8.708-11.779h18.98v-14.234zm48.806 64.414v13.372c-12.28 0-24.903 2.6-24.903-6.686 0-8.533 12.258-6.686 24.903-6.686z" transform="translate(0 -409.273)"/><path fill="#fff" d="M730.909 699.647v66.007h19.14v-31.16c0-12.416 6.537-18.163 21.837-18.163h3.66v20.613c0 26.234 18.48 29.693 28.22 29.693 4.344 0 14.046-.957 20.586-8.823l-.096 7.84h18.162v-66.007h-19.14v32.638c0 12.748-6.798 17.789-15.218 17.789-12.81 0-13.371-13.024-13.371-17.789v-32.638h-22.8c-8.585 0-16.852 1.711-22.7 8.685v-8.685zm-16.68 43.785c-4.666 0-18.906 3.061-10.822 4.757 8.751 1.836-13.833 3.434-13.833 6.846 0 3.407 22.594 2.697 14.284 5.779-4.735 1.756 4.138 5.823 10.372 5.823 6.408 0 11.602-5.194 11.602-11.602 0-6.41-5.194-11.603-11.602-11.603z" opacity=".4" transform="translate(0 -409.273)"/></svg>
