<svg xmlns="http://www.w3.org/2000/svg" xmlns:xlink="http://www.w3.org/1999/xlink" fill="none" viewBox="0 0 880 260"><defs><radialGradient xlink:href="#a" id="b" cx="336.183" cy="136.118" r="440" fx="336.183" fy="136.118" gradientTransform="matrix(1 0 0 .80043 0 25.945)" gradientUnits="userSpaceOnUse"/><linearGradient id="a"><stop offset="0" stop-color="#3f3f3f"/><stop offset="1" stop-color="#010101"/></linearGradient></defs><path fill="url(#b)" d="M0 0h880v260H0z"/><path stroke="#93c5fd" stroke-opacity=".45" stroke-width="1.5" d="M30 50V30h20m780 0h20v20M30 210v20h20m780 0h20v-20"/><path fill="#ff5454" d="M344.378 126.998c0 25.296-20.506 45.802-45.802 45.802-24.605 0-59.632-16.05-40.942-22.982 32.801-12.166-56.385-9.371-56.385-22.82 0-13.467 89.155-19.783 54.613-27.03-31.91-6.693 24.292-18.772 42.714-18.772 25.296 0 45.802 20.506 45.802 45.802z" opacity=".5"/><path fill="#fff" d="M288.41 92.865c-16.034 0-18.714 11.43-18.714 19.076h-7.47v10.438h7.47v37.967h13.678V122.38h29.671c8.298 0 11.156 4.633 11.156 7.284-12.347-.098-31.754-1.017-31.94 15.342-.208 18.256 20.927 15.341 32.842 15.341H366.6c14.268 0 22.851-4.305 22.851-14.664 0-7.212-4.748-11.409-11.514-13.045-5.901-1.428-18.274-.503-18.274-6.301 0-3.955 6.251-3.957 9.544-3.957h28.855v18.802c0 14.963 10.62 19.165 18.084 19.165h30.868v-22.85c0-12.976 11.608-13.32 21.606-13.32l15.705 36.573c-3.052 7.838-9.328 7.336-16.01 7.336v10.439c13.186 1.068 22.088-.296 28.434-15.209l21.864-51.374h-13.496l-13.674 32.874-13.589-32.874h-14.825c-6.656 0-12.36 1.255-16.647 6.37v-6.37h-13.404v37.967h-14.853c-2.795 0-6.027-3.006-6.027-8.727V122.38h11.973v-10.438h-11.973v-10.709H398.06v10.709h-28.855c-9.747 0-22.404 3.187-22.404 14.934 0 9.222 7.368 12.89 17.726 14.4 3.782.55 11.519.32 11.519 4.765 0 3.02-3.803 3.868-8.908 3.868h-28.902v-17.183c0-17.002-12.455-20.784-23.302-20.784h-31.561c-.577-4.602 2.97-8.638 6.385-8.638h13.92V92.865Zm35.79 47.237v9.806c-9.005 0-18.262 1.907-18.262-4.903 0-6.257 8.99-4.903 18.263-4.903z"/><path fill="#fff" d="M536 111.94v48.406h14.036v-22.85c0-9.106 4.794-13.32 16.014-13.32h2.683v15.116c0 19.239 13.553 21.775 20.696 21.775 3.185 0 10.3-.701 15.095-6.47l-.07 5.75h13.32V111.94h-14.037v23.935c0 9.348-4.985 13.045-11.16 13.045-9.393 0-9.805-9.551-9.805-13.045V111.94h-16.72c-6.296 0-12.358 1.255-16.646 6.37v-6.37zm-12.232 32.11c-3.422 0-13.865 2.245-7.936 3.489 6.417 1.346-10.145 2.518-10.145 5.02 0 2.498 16.57 1.978 10.475 4.238-3.472 1.288 3.035 4.27 7.606 4.27a8.508 8.508 0 1 0 0-17.017z" opacity=".4"/></svg>
